<svg viewBox="0 0 20 24" fill="none" xmlns="http://www.w3.org/2000/svg">
<g filter="url(#filter0_d_953_43907)">
<path d="M11.4853 0.628315C11.3798 0.540639 11.2548 0.479602 11.1208 0.45035C10.9869 0.421098 10.8478 0.424489 10.7154 0.460236C10.583 0.495984 10.4611 0.56304 10.3601 0.655752C10.259 0.748464 10.1817 0.864114 10.1347 0.992952L7.78223 7.4527L5.19875 4.94943C5.11199 4.86528 5.00838 4.80047 4.89475 4.75927C4.78113 4.71807 4.66006 4.70142 4.53952 4.71041C4.41899 4.7194 4.30173 4.75384 4.19548 4.81144C4.08922 4.86904 3.99637 4.94851 3.92306 5.0446C1.60691 8.07932 0.430664 11.1322 0.430664 14.1178C0.430664 16.6135 1.42207 19.0069 3.18679 20.7716C4.95151 22.5364 7.34498 23.5278 9.84066 23.5278C12.3364 23.5278 14.7298 22.5364 16.4945 20.7716C18.2593 19.0069 19.2507 16.6135 19.2507 14.1178C19.2507 7.76067 13.8196 2.56913 11.4853 0.628315ZM15.8171 15.1165C15.5953 16.3555 14.9991 17.4968 14.109 18.3868C13.2189 19.2768 12.0774 19.8726 10.8383 20.0942C10.7914 20.1022 10.7438 20.1062 10.6961 20.1059C10.4815 20.1059 10.2748 20.0252 10.1169 19.8799C9.95907 19.7345 9.86159 19.5352 9.84382 19.3213C9.82606 19.1075 9.88931 18.8948 10.021 18.7254C10.1528 18.556 10.3433 18.4423 10.555 18.4068C12.3268 18.1085 13.8303 16.605 14.1308 14.8299C14.1688 14.6062 14.2941 14.4067 14.4792 14.2753C14.6643 14.144 14.894 14.0915 15.1177 14.1295C15.3415 14.1675 15.541 14.2929 15.6724 14.478C15.8037 14.6631 15.8562 14.8927 15.8182 15.1165H15.8171Z" fill="url(#paint0_radial_953_43907)"/>
<path d="M10.7227 0.486328C10.8508 0.451757 10.9855 0.448246 11.1152 0.476562C11.245 0.504903 11.3657 0.564521 11.4678 0.649414C12.6339 1.619 14.574 3.39995 16.2217 5.73242C17.8695 8.06505 19.2236 10.9473 19.2236 14.1182C19.2235 16.6066 18.2352 18.9934 16.4756 20.7529C14.716 22.5125 12.3293 23.5009 9.84082 23.501C7.3524 23.501 4.9657 22.5124 3.20605 20.7529C1.44648 18.9934 0.458114 16.6066 0.458008 14.1182C0.458008 11.14 1.63076 8.09191 3.94434 5.06055C4.01528 4.96761 4.10523 4.89071 4.20801 4.83496C4.31092 4.77917 4.42525 4.74601 4.54199 4.7373C4.65858 4.72867 4.77583 4.74433 4.88574 4.78418C4.99571 4.82406 5.0957 4.88733 5.17969 4.96875L7.76367 7.47168L7.79297 7.50098L7.80762 7.46191L10.1602 1.00195C10.2056 0.877387 10.2803 0.765474 10.3779 0.675781C10.4758 0.585987 10.5944 0.520951 10.7227 0.486328ZM15.1221 14.1025C14.8915 14.0634 14.6547 14.1177 14.4639 14.2529C14.273 14.3884 14.1437 14.5945 14.1045 14.8252C13.8059 16.5889 12.3112 18.0833 10.5508 18.3799C10.3325 18.4165 10.1359 18.5343 10 18.709C9.86418 18.8836 9.79913 19.1028 9.81738 19.3232C9.8357 19.5437 9.93589 19.7495 10.0986 19.8994C10.2615 20.0493 10.475 20.1328 10.6963 20.1328C10.7454 20.133 10.7944 20.1294 10.8428 20.1211C12.0871 19.8986 13.2339 19.3 14.1279 18.4062C15.0166 17.5178 15.6129 16.3793 15.8389 15.1436H15.8408L15.8447 15.1211C15.8839 14.8903 15.8298 14.6528 15.6943 14.4619C15.5588 14.2712 15.3528 14.1417 15.1221 14.1025Z" stroke="white" stroke-opacity="0.24" style="mix-blend-mode:color-dodge" stroke-width="0.0538471"/>
</g>
<defs>
<filter id="filter0_d_953_43907" x="-0.000112474" y="-0.000112474" width="19.6819" height="23.9587" filterUnits="userSpaceOnUse" color-interpolation-filters="sRGB">
<feFlood flood-opacity="0" result="BackgroundImageFix"/>
<feColorMatrix in="SourceAlpha" type="matrix" values="0 0 0 0 0 0 0 0 0 0 0 0 0 0 0 0 0 0 127 0" result="hardAlpha"/>
<feOffset/>
<feGaussianBlur stdDeviation="0.215388"/>
<feComposite in2="hardAlpha" operator="out"/>
<feColorMatrix type="matrix" values="0 0 0 0 1 0 0 0 0 1 0 0 0 0 1 0 0 0 0.25 0"/>
<feBlend mode="normal" in2="BackgroundImageFix" result="effect1_dropShadow_953_43907"/>
<feBlend mode="normal" in="SourceGraphic" in2="effect1_dropShadow_953_43907" result="shape"/>
</filter>
<radialGradient id="paint0_radial_953_43907" cx="0" cy="0" r="1" gradientUnits="userSpaceOnUse" gradientTransform="translate(9.84066 23.5277) rotate(-90) scale(23.0973 15.6882)">
<stop stop-color="#FF2200"/>
<stop offset="0.868146" stop-color="#FFC118"/>
</radialGradient>
</defs>
</svg>
